<svg xmlns="http://www.w3.org/2000/svg" width="56" height="57" viewBox="0 0 56 57" fill="none">
  <path fill-rule="evenodd" clip-rule="evenodd" d="M7 23.4012C7 10.9127 17.1031 2.60156 27.7997 2.60156C38.8598 2.60156 48.5993 10.9271 48.5993 23.4012C48.5993 31.4748 44.8017 37.6251 40.4729 42.5155C38.3457 44.9186 36.063 47.0473 34.0223 48.9504L33.9268 49.0394C31.8319 50.9931 30.0462 52.6684 28.8209 54.2241C28.574 54.5377 28.1966 54.7204 27.7975 54.7197C27.3983 54.7191 27.0216 54.5351 26.7757 54.2207C25.5512 52.6552 23.7661 50.9748 21.672 49.0197L21.5238 48.8814C19.4973 46.9896 17.2356 44.8783 15.127 42.499C10.7981 37.6145 7 31.4753 7 23.4012ZM27.7999 33.8011C33.5435 33.8011 38.1997 29.145 38.1997 23.4013C38.1997 17.6576 33.5435 13.0015 27.7999 13.0015C22.0562 13.0015 17.4 17.6576 17.4 23.4013C17.4 29.145 22.0562 33.8011 27.7999 33.8011Z" fill="#FF4E4E"/>
  <g filter="url(#filter0_i_480_10835)">
    <circle cx="27.7996" cy="23.3465" r="10.3153" fill="white"/>
  </g>
  <g filter="url(#filter1_f_480_10835)">
    <path d="M34.9014 44.8772C37.6634 42.0589 41.6655 38.1131 44.0329 33.04" stroke="white" stroke-width="0.993103" stroke-linecap="round" stroke-linejoin="round"/>
  </g>
  <g filter="url(#filter2_f_480_10835)">
    <path d="M45.8731 22.5341C46.0118 23.8244 46.1126 26.8228 45.4058 28.4945" stroke="white" stroke-width="0.993103" stroke-linecap="round" stroke-linejoin="round"/>
  </g>
  <defs>
    <filter id="filter0_i_480_10835" x="17.4844" y="13.0312" width="20.6309" height="21.9832" filterUnits="userSpaceOnUse" color-interpolation-filters="sRGB">
      <feFlood flood-opacity="0" result="BackgroundImageFix"/>
      <feBlend mode="normal" in="SourceGraphic" in2="BackgroundImageFix" result="shape"/>
      <feColorMatrix in="SourceAlpha" type="matrix" values="0 0 0 0 0 0 0 0 0 0 0 0 0 0 0 0 0 0 127 0" result="hardAlpha"/>
      <feOffset dy="1.35282"/>
      <feGaussianBlur stdDeviation="1.35282"/>
      <feComposite in2="hardAlpha" operator="arithmetic" k2="-1" k3="1"/>
      <feColorMatrix type="matrix" values="0 0 0 0 0 0 0 0 0 0 0 0 0 0 0 0 0 0 0.3 0"/>
      <feBlend mode="normal" in2="shape" result="effect1_innerShadow_480_10835"/>
    </filter>
    <filter id="filter1_f_480_10835" x="31.8746" y="30.0128" width="15.1853" height="17.8918" filterUnits="userSpaceOnUse" color-interpolation-filters="sRGB">
      <feFlood flood-opacity="0" result="BackgroundImageFix"/>
      <feBlend mode="normal" in="SourceGraphic" in2="BackgroundImageFix" result="shape"/>
      <feGaussianBlur stdDeviation="1.26532" result="effect1_foregroundBlur_480_10835"/>
    </filter>
    <filter id="filter2_f_480_10835" x="42.3785" y="19.507" width="6.62085" height="12.0149" filterUnits="userSpaceOnUse" color-interpolation-filters="sRGB">
      <feFlood flood-opacity="0" result="BackgroundImageFix"/>
      <feBlend mode="normal" in="SourceGraphic" in2="BackgroundImageFix" result="shape"/>
      <feGaussianBlur stdDeviation="1.26532" result="effect1_foregroundBlur_480_10835"/>
    </filter>
  </defs>
</svg>