<svg xmlns="http://www.w3.org/2000/svg" width="56" height="57" viewBox="0 0 56 57" fill="none">
  <g filter="url(#filter0_ii_480_10797)">
    <path fill-rule="evenodd" clip-rule="evenodd" d="M42.8884 12.7988H14.9848V17.3907C14.8711 17.4389 14.7587 17.4904 14.6478 17.5451C14.0735 17.8285 13.554 18.2272 12.515 19.0248L11.3085 19.9509C9.81635 21.0964 9.07026 21.6691 8.53254 22.3894C8.05625 23.0274 7.70122 23.7475 7.48515 24.5138C7.24121 25.3789 7.24121 26.3195 7.24121 28.2006V42.6861C7.24121 46.3265 7.24121 48.1466 7.94967 49.5371C8.57286 50.7601 9.56724 51.7545 10.7903 52.3777C12.1807 53.0862 14.0009 53.0862 17.6413 53.0862H40.2322C43.8725 53.0862 45.6927 53.0862 47.0831 52.3777C48.3062 51.7545 49.3006 50.7601 49.9238 49.5371C50.6322 48.1466 50.6322 46.3265 50.6322 42.6861V28.1975C50.6322 26.3175 50.6322 25.3775 50.3885 24.5128C50.1727 23.7468 49.818 23.027 49.3422 22.3892C48.805 21.6691 48.0597 21.0964 46.5689 19.9509L46.5689 19.9509L45.3677 19.0279L45.3677 19.0278C44.3283 18.2292 43.8086 17.8298 43.234 17.5461C43.1203 17.49 43.005 17.4372 42.8884 17.3879V12.7988Z" fill="#FFC446"/>
  </g>
  <g filter="url(#filter1_f_480_10797)">
    <path fill-rule="evenodd" clip-rule="evenodd" d="M13.7448 12.7979H19.4112V17.3897C19.2975 17.4379 19.1851 17.4895 19.0742 17.5442C18.4999 17.8275 17.9804 18.2263 16.9414 19.0238L15.735 19.9499L15.7349 19.95C14.2428 21.0954 13.4967 21.6681 12.959 22.3884C12.4827 23.0264 12.1277 23.7465 11.9116 24.5128C11.6677 25.378 11.6677 26.3185 11.6677 28.1997V42.6851C11.6677 46.3255 11.6677 48.1457 12.3761 49.5361C12.9993 50.7592 13.9937 51.7535 15.2167 52.3767C16.6072 53.0852 18.4274 53.0852 22.0677 53.0852H16.4001C12.7597 53.0852 10.9395 53.0852 9.54909 52.3767C8.32603 51.7535 7.33164 50.7592 6.70846 49.5361C6 48.1457 6 46.3255 6 42.6851V28.1997C6 26.3185 6 25.378 6.24394 24.5128C6.46001 23.7465 6.81504 23.0264 7.29133 22.3884C7.82905 21.6681 8.57513 21.0954 10.0673 19.95L10.0673 19.9499L11.2738 19.0238C12.3128 18.2263 12.8322 17.8275 13.4066 17.5442C13.5179 17.4892 13.6307 17.4376 13.7448 17.3892V12.7979Z" fill="#FFD87D"/>
  </g>
  <g filter="url(#filter2_f_480_10797)">
    <path fill-rule="evenodd" clip-rule="evenodd" d="M36.9424 13.2114V17.8031C37.0561 17.8513 37.1684 17.9028 37.2794 17.9575C37.8537 18.2408 38.3732 18.6396 39.4121 19.4372L40.6186 20.3633L40.6186 20.3633C42.1108 21.5088 42.8569 22.0815 43.3946 22.8018C43.8709 23.4398 44.2259 24.1599 44.442 24.9262C44.6859 25.7913 44.6859 26.7319 44.6859 28.613V43.0985C44.6859 46.7388 44.6859 48.559 43.9775 49.9495C43.3543 51.1725 42.3599 52.1669 41.1368 52.7901C39.7464 53.4985 37.9262 53.4985 34.2858 53.4985H16.6503C16.8797 53.4988 17.117 53.4988 17.3626 53.4988H39.9534C43.5938 53.4988 45.414 53.4988 46.8044 52.7903C48.0275 52.1671 49.0219 51.1727 49.6451 49.9497C50.3535 48.5592 50.3535 46.739 50.3535 43.0987V28.6132C50.3535 26.7321 50.3535 25.7915 50.1096 24.9264C49.8935 24.1601 49.5385 23.44 49.0622 22.802C48.5245 22.0817 47.7784 21.509 46.2862 20.3635L45.0797 19.4374C44.0408 18.6398 43.5213 18.2411 42.947 17.9577C42.836 17.903 42.7237 17.8515 42.61 17.8033V13.2114H36.9424Z" fill="#F6BF3C"/>
  </g>
  <path d="M29.2695 27.2246V40.7811" stroke="#4E8ED5" stroke-width="6.77823" stroke-linecap="round" stroke-linejoin="round"/>
  <path d="M22.4902 34.0034L36.0467 34.0034" stroke="#4E8ED5" stroke-width="6.77823" stroke-linecap="round" stroke-linejoin="round"/>
  <g filter="url(#filter3_i_480_10797)">
    <path d="M10.3408 11.2148C10.3408 7.73599 10.3408 5.99656 11.3464 4.8576C11.4565 4.73293 11.5742 4.61522 11.6989 4.50514C12.8379 3.49951 14.5773 3.49951 18.0562 3.49951H39.8178C43.2966 3.49951 45.0361 3.49951 46.175 4.50514C46.2997 4.61522 46.4174 4.73293 46.5275 4.8576C47.5331 5.99656 47.5331 7.73599 47.5331 11.2148C47.5331 12.5463 47.5331 13.212 47.1483 13.6479C47.1061 13.6956 47.0611 13.7406 47.0134 13.7828C46.5775 14.1676 45.9118 14.1676 44.5803 14.1676H13.2936C11.9622 14.1676 11.2965 14.1676 10.8606 13.7828C10.8129 13.7406 10.7678 13.6956 10.7257 13.6479C10.3408 13.212 10.3408 12.5463 10.3408 11.2148Z" fill="#4E8ED5"/>
  </g>
  <g filter="url(#filter4_f_480_10797)">
    <path d="M16.2852 7.09912L26.9975 7.09912" stroke="white" stroke-width="2.27502" stroke-linecap="round" stroke-linejoin="round"/>
  </g>
  <g filter="url(#filter5_i_480_10797)">
    <path d="M16.2852 5.07148C16.2852 4.72916 16.5627 4.45166 16.905 4.45166C17.2473 4.45166 17.5248 4.72916 17.5248 5.07148V12.5971C17.5248 12.9394 17.2473 13.2169 16.905 13.2169C16.5627 13.2169 16.2852 12.9394 16.2852 12.5971V5.07148Z" fill="#3172BA"/>
    <path d="M20.0029 5.07148C20.0029 4.72916 20.2804 4.45166 20.6227 4.45166C20.9651 4.45166 21.2426 4.72916 21.2426 5.07148V12.5971C21.2426 12.9394 20.9651 13.2169 20.6227 13.2169C20.2804 13.2169 20.0029 12.9394 20.0029 12.5971V5.07148Z" fill="#3172BA"/>
    <path d="M23.7227 5.07148C23.7227 4.72916 24.0002 4.45166 24.3425 4.45166C24.6848 4.45166 24.9623 4.72916 24.9623 5.07148V12.5971C24.9623 12.9394 24.6848 13.2169 24.3425 13.2169C24.0002 13.2169 23.7227 12.9394 23.7227 12.5971V5.07148Z" fill="#3172BA"/>
    <path d="M27.4414 5.07148C27.4414 4.72916 27.7189 4.45166 28.0612 4.45166C28.4035 4.45166 28.681 4.72916 28.681 5.07148V12.5971C28.681 12.9394 28.4035 13.2169 28.0612 13.2169C27.7189 13.2169 27.4414 12.9394 27.4414 12.5971V5.07148Z" fill="#3172BA"/>
    <path d="M31.1611 5.07148C31.1611 4.72916 31.4386 4.45166 31.781 4.45166C32.1233 4.45166 32.4008 4.72916 32.4008 5.07148V12.5971C32.4008 12.9394 32.1233 13.2169 31.781 13.2169C31.4386 13.2169 31.1611 12.9394 31.1611 12.5971V5.07148Z" fill="#3172BA"/>
    <path d="M34.8789 5.07148C34.8789 4.72916 35.1564 4.45166 35.4987 4.45166C35.841 4.45166 36.1185 4.72916 36.1185 5.07148V12.5971C36.1185 12.9394 35.841 13.2169 35.4987 13.2169C35.1564 13.2169 34.8789 12.9394 34.8789 12.5971V5.07148Z" fill="#3172BA"/>
    <path d="M38.5986 5.07148C38.5986 4.72916 38.8761 4.45166 39.2185 4.45166C39.5608 4.45166 39.8383 4.72916 39.8383 5.07148V12.5971C39.8383 12.9394 39.5608 13.2169 39.2185 13.2169C38.8761 13.2169 38.5986 12.9394 38.5986 12.5971V5.07148Z" fill="#3172BA"/>
    <path d="M42.3174 5.07148C42.3174 4.72916 42.5949 4.45166 42.9372 4.45166C43.2795 4.45166 43.557 4.72916 43.557 5.07148V12.5971C43.557 12.9394 43.2795 13.2169 42.9372 13.2169C42.5949 13.2169 42.3174 12.9394 42.3174 12.5971V5.07148Z" fill="#3172BA"/>
  </g>
  <g filter="url(#filter6_f_480_10797)">
    <path d="M10.874 44.688C10.874 47.0504 11.9833 49.3575 14.9411 49.3575" stroke="white" stroke-width="2.27502" stroke-linecap="round" stroke-linejoin="round"/>
  </g>
  <defs>
    <filter id="filter0_ii_480_10797" x="7.24121" y="11.5592" width="43.3906" height="42.7664" filterUnits="userSpaceOnUse" color-interpolation-filters="sRGB">
      <feFlood flood-opacity="0" result="BackgroundImageFix"/>
      <feBlend mode="normal" in="SourceGraphic" in2="BackgroundImageFix" result="shape"/>
      <feColorMatrix in="SourceAlpha" type="matrix" values="0 0 0 0 0 0 0 0 0 0 0 0 0 0 0 0 0 0 127 0" result="hardAlpha"/>
      <feOffset dy="1.23964"/>
      <feGaussianBlur stdDeviation="1.85946"/>
      <feComposite in2="hardAlpha" operator="arithmetic" k2="-1" k3="1"/>
      <feColorMatrix type="matrix" values="0 0 0 0 1 0 0 0 0 0.881078 0 0 0 0 0.598124 0 0 0 1 0"/>
      <feBlend mode="normal" in2="shape" result="effect1_innerShadow_480_10797"/>
      <feColorMatrix in="SourceAlpha" type="matrix" values="0 0 0 0 0 0 0 0 0 0 0 0 0 0 0 0 0 0 127 0" result="hardAlpha"/>
      <feOffset dy="-1.23964"/>
      <feGaussianBlur stdDeviation="2.47928"/>
      <feComposite in2="hardAlpha" operator="arithmetic" k2="-1" k3="1"/>
      <feColorMatrix type="matrix" values="0 0 0 0 0.863525 0 0 0 0 0.606911 0 0 0 0 0 0 0 0 1 0"/>
      <feBlend mode="normal" in2="effect1_innerShadow_480_10797" result="effect2_innerShadow_480_10797"/>
    </filter>
    <filter id="filter1_f_480_10797" x="3.52072" y="10.3186" width="21.0259" height="45.2457" filterUnits="userSpaceOnUse" color-interpolation-filters="sRGB">
      <feFlood flood-opacity="0" result="BackgroundImageFix"/>
      <feBlend mode="normal" in="SourceGraphic" in2="BackgroundImageFix" result="shape"/>
      <feGaussianBlur stdDeviation="1.23964" result="effect1_foregroundBlur_480_10797"/>
    </filter>
    <filter id="filter2_f_480_10797" x="14.1711" y="10.7321" width="38.6617" height="45.2457" filterUnits="userSpaceOnUse" color-interpolation-filters="sRGB">
      <feFlood flood-opacity="0" result="BackgroundImageFix"/>
      <feBlend mode="normal" in="SourceGraphic" in2="BackgroundImageFix" result="shape"/>
      <feGaussianBlur stdDeviation="1.23964" result="effect1_foregroundBlur_480_10797"/>
    </filter>
    <filter id="filter3_i_480_10797" x="10.3408" y="2.25987" width="37.1924" height="11.9076" filterUnits="userSpaceOnUse" color-interpolation-filters="sRGB">
      <feFlood flood-opacity="0" result="BackgroundImageFix"/>
      <feBlend mode="normal" in="SourceGraphic" in2="BackgroundImageFix" result="shape"/>
      <feColorMatrix in="SourceAlpha" type="matrix" values="0 0 0 0 0 0 0 0 0 0 0 0 0 0 0 0 0 0 127 0" result="hardAlpha"/>
      <feOffset dy="-1.23964"/>
      <feGaussianBlur stdDeviation="1.23964"/>
      <feComposite in2="hardAlpha" operator="arithmetic" k2="-1" k3="1"/>
      <feColorMatrix type="matrix" values="0 0 0 0 0.130558 0 0 0 0 0.308069 0 0 0 0 0.50629 0 0 0 1 0"/>
      <feBlend mode="normal" in2="shape" result="effect1_innerShadow_480_10797"/>
    </filter>
    <filter id="filter4_f_480_10797" x="10.1889" y="1.00287" width="22.9044" height="12.1925" filterUnits="userSpaceOnUse" color-interpolation-filters="sRGB">
      <feFlood flood-opacity="0" result="BackgroundImageFix"/>
      <feBlend mode="normal" in="SourceGraphic" in2="BackgroundImageFix" result="shape"/>
      <feGaussianBlur stdDeviation="2.47928" result="effect1_foregroundBlur_480_10797"/>
    </filter>
    <filter id="filter5_i_480_10797" x="16.2852" y="4.45166" width="27.2715" height="10.0048" filterUnits="userSpaceOnUse" color-interpolation-filters="sRGB">
      <feFlood flood-opacity="0" result="BackgroundImageFix"/>
      <feBlend mode="normal" in="SourceGraphic" in2="BackgroundImageFix" result="shape"/>
      <feColorMatrix in="SourceAlpha" type="matrix" values="0 0 0 0 0 0 0 0 0 0 0 0 0 0 0 0 0 0 127 0" result="hardAlpha"/>
      <feOffset dy="1.23964"/>
      <feGaussianBlur stdDeviation="0.619819"/>
      <feComposite in2="hardAlpha" operator="arithmetic" k2="-1" k3="1"/>
      <feColorMatrix type="matrix" values="0 0 0 0 0 0 0 0 0 0 0 0 0 0 0 0 0 0 0.25 0"/>
      <feBlend mode="normal" in2="shape" result="effect1_innerShadow_480_10797"/>
    </filter>
    <filter id="filter6_f_480_10797" x="4.77777" y="38.5917" width="16.2599" height="16.8619" filterUnits="userSpaceOnUse" color-interpolation-filters="sRGB">
      <feFlood flood-opacity="0" result="BackgroundImageFix"/>
      <feBlend mode="normal" in="SourceGraphic" in2="BackgroundImageFix" result="shape"/>
      <feGaussianBlur stdDeviation="2.47928" result="effect1_foregroundBlur_480_10797"/>
    </filter>
  </defs>
</svg>