<svg xmlns="http://www.w3.org/2000/svg" width="80" height="80" viewBox="0 0 80 80" fill="none">
  <g filter="url(#filter0_i_237_54776)">
    <path d="M34.7566 10.375C36.9298 6.07492 43.0702 6.07492 45.2434 10.375C46.7137 13.2843 50.2716 14.4403 53.1712 12.9508C57.4568 10.7494 62.4245 14.3587 61.6552 19.1148C61.1346 22.3328 63.3335 25.3592 66.5548 25.8586C71.3159 26.5966 73.2134 32.4365 69.7954 35.8321C67.4828 38.1295 67.4828 41.8705 69.7954 44.1679C73.2134 47.5635 71.3159 53.4034 66.5548 54.1414C63.3335 54.6408 61.1346 57.6672 61.6552 60.8852C62.4245 65.6413 57.4568 69.2506 53.1712 67.0491C50.2716 65.5597 46.7137 66.7157 45.2434 69.625C43.0702 73.9251 36.9298 73.9251 34.7566 69.625C33.2863 66.7157 29.7284 65.5597 26.8288 67.0491C22.5432 69.2506 17.5755 65.6413 18.3448 60.8852C18.8654 57.6672 16.6665 54.6408 13.4452 54.1414C8.68408 53.4034 6.78659 47.5635 10.2046 44.1679C12.5172 41.8705 12.5172 38.1295 10.2046 35.8321C6.78659 32.4365 8.68408 26.5966 13.4452 25.8586C16.6665 25.3592 18.8654 22.3328 18.3448 19.1148C17.5755 14.3587 22.5432 10.7494 26.8288 12.9508C29.7284 14.4403 33.2863 13.2843 34.7566 10.375Z" fill="url(#paint0_linear_237_54776)"/>
  </g>
  <g filter="url(#filter1_f_237_54776)">
    <path d="M63.9018 42.7627L64.5826 43.439C67.4025 46.2405 65.8371 51.0586 61.909 51.6675V51.6675C59.2513 52.0795 57.4372 54.5764 57.8667 57.2313V57.2313C58.5014 61.1553 54.4029 64.133 50.8671 62.3167L49.7686 61.7524" stroke="white" stroke-width="2" stroke-linecap="round"/>
  </g>
  <circle cx="31.4597" cy="31.4606" r="4.79366" fill="url(#paint1_linear_237_54776)"/>
  <circle cx="48.5378" cy="48.5397" r="4.79366" fill="url(#paint2_linear_237_54776)"/>
  <rect x="50.3701" y="26.667" width="4.19039" height="33.5232" rx="2.0952" transform="rotate(45 50.3701 26.667)" fill="url(#paint3_linear_237_54776)"/>
  <defs>
    <filter id="filter0_i_237_54776" x="8.46387" y="7.1499" width="63.0723" height="70.4997" filterUnits="userSpaceOnUse" color-interpolation-filters="sRGB">
      <feFlood flood-opacity="0" result="BackgroundImageFix"/>
      <feBlend mode="normal" in="SourceGraphic" in2="BackgroundImageFix" result="shape"/>
      <feColorMatrix in="SourceAlpha" type="matrix" values="0 0 0 0 0 0 0 0 0 0 0 0 0 0 0 0 0 0 127 0" result="hardAlpha"/>
      <feOffset dy="4.8"/>
      <feGaussianBlur stdDeviation="2.4"/>
      <feComposite in2="hardAlpha" operator="arithmetic" k2="-1" k3="1"/>
      <feColorMatrix type="matrix" values="0 0 0 0 0.255745 0 0 0 0 0.865929 0 0 0 0 0.445112 0 0 0 1 0"/>
      <feBlend mode="normal" in2="shape" result="effect1_innerShadow_237_54776"/>
    </filter>
    <filter id="filter1_f_237_54776" x="41.5686" y="34.5627" width="32.651" height="36.5016" filterUnits="userSpaceOnUse" color-interpolation-filters="sRGB">
      <feFlood flood-opacity="0" result="BackgroundImageFix"/>
      <feBlend mode="normal" in="SourceGraphic" in2="BackgroundImageFix" result="shape"/>
      <feGaussianBlur stdDeviation="3.6" result="effect1_foregroundBlur_237_54776"/>
    </filter>
    <linearGradient id="paint0_linear_237_54776" x1="40" y1="0" x2="40" y2="80" gradientUnits="userSpaceOnUse">
      <stop stop-color="#2CBB54"/>
      <stop offset="1" stop-color="#2A7749"/>
    </linearGradient>
    <linearGradient id="paint1_linear_237_54776" x1="31.4597" y1="26.667" x2="31.4597" y2="36.2543" gradientUnits="userSpaceOnUse">
      <stop stop-color="#DDFFA5"/>
      <stop offset="1" stop-color="#8DD813"/>
    </linearGradient>
    <linearGradient id="paint2_linear_237_54776" x1="48.5378" y1="43.7461" x2="48.5378" y2="53.3334" gradientUnits="userSpaceOnUse">
      <stop stop-color="#DDFFA5"/>
      <stop offset="1" stop-color="#8DD813"/>
    </linearGradient>
    <linearGradient id="paint3_linear_237_54776" x1="52.4653" y1="26.667" x2="52.4653" y2="60.1901" gradientUnits="userSpaceOnUse">
      <stop stop-color="#DDFFA5"/>
      <stop offset="1" stop-color="#8DD813"/>
    </linearGradient>
  </defs>
</svg>