<svg xmlns="http://www.w3.org/2000/svg" width="56" height="57" viewBox="0 0 56 57" fill="none">
  <circle cx="28" cy="28.5" r="14" fill="white"/>
  <path d="M48.5752 27.8975C48.5752 24.1073 48.5752 22.2123 47.7645 20.5465C46.9538 18.8807 45.4313 17.6474 42.3862 15.1808L39.4324 12.7881C33.9286 8.32974 31.1766 7.54785 27.8986 7.54785C24.6206 7.54785 21.8686 8.32974 16.3648 12.7881L13.411 15.1808C10.3659 17.6474 8.84342 18.8807 8.03271 20.5465C7.22201 22.2123 7.22201 24.1073 7.22201 27.8975V39.7345C7.22201 44.9981 7.22201 47.63 8.9523 49.2652C10.6826 50.9004 13.4675 50.9004 19.0372 50.9004H36.76C42.3297 50.9004 45.1146 50.9004 46.8449 49.2652C48.5752 47.63 48.5752 44.9981 48.5752 39.7345V27.8975Z" fill="url(#paint0_linear_480_10783)"/>
  <g filter="url(#filter0_f_480_10783)">
    <path d="M45.9902 29.3379V37.6433" stroke="white" stroke-width="2.05547" stroke-linecap="round" stroke-linejoin="round"/>
  </g>
  <g filter="url(#filter1_f_480_10783)">
    <path d="M9.83984 43.9258C9.83991 46.4798 9.83984 48.2498 13.254 48.2498" stroke="white" stroke-width="2.05547" stroke-linecap="round" stroke-linejoin="round"/>
  </g>
  <path d="M7.76144 8.17066C8.05771 7.17364 8.20585 6.67512 8.59089 6.38786C8.97594 6.10059 9.496 6.10059 10.5361 6.10059H45.2612C46.3014 6.10059 46.8214 6.10059 47.2065 6.38786C47.5915 6.67512 47.7396 7.17364 48.0359 8.17066L51.0283 18.2407C51.8144 20.8862 52.2074 22.209 51.7388 23.207C51.5726 23.5609 51.3364 23.8775 51.0444 24.1376C50.2213 24.8712 48.8414 24.8712 46.0815 24.8712C44.3085 24.8712 43.422 24.8712 42.7365 24.4619C42.4886 24.3139 42.2643 24.1296 42.0709 23.9152C41.5362 23.3223 41.3639 22.4527 41.0194 20.7135L40.7325 19.2655C40.6225 18.71 40.5675 18.4323 40.4486 18.4323C40.3297 18.4323 40.2747 18.71 40.1647 19.2655L39.9781 20.207C39.5359 22.4394 39.3148 23.5557 38.5139 24.2134C37.7131 24.8712 36.5752 24.8712 34.2993 24.8712H34.0479C31.7721 24.8712 30.6342 24.8712 29.8333 24.2134C29.0325 23.5557 28.8114 22.4394 28.3691 20.207L28.1826 19.2655C28.0726 18.71 28.0175 18.4323 27.8987 18.4323C27.7798 18.4323 27.7248 18.71 27.6147 19.2655L27.4282 20.207C26.986 22.4394 26.7648 23.5557 25.964 24.2134C25.1632 24.8712 24.0252 24.8712 21.7494 24.8712H21.498C19.2222 24.8712 18.0843 24.8712 17.2834 24.2134C16.4826 23.5557 16.2615 22.4394 15.8192 20.207L15.6327 19.2655C15.5226 18.71 15.4676 18.4323 15.3488 18.4323C15.2299 18.4323 15.1749 18.71 15.0648 19.2655L14.778 20.7135C14.4334 22.4527 14.2612 23.3223 13.7264 23.9152C13.5331 24.1296 13.3087 24.3139 13.0608 24.4619C12.3753 24.8712 11.4888 24.8712 9.71582 24.8712C6.95598 24.8712 5.57606 24.8712 4.7529 24.1376C4.46098 23.8775 4.22478 23.5609 4.05857 23.207C3.58991 22.209 3.98297 20.8862 4.76909 18.2407L7.76144 8.17066Z" fill="url(#paint1_linear_480_10783)"/>
  <g filter="url(#filter2_f_480_10783)">
    <path d="M9.0459 11.7949C9.52916 9.28709 9.86399 7.54897 13.2165 8.19492" stroke="white" stroke-width="2.05547" stroke-linecap="round" stroke-linejoin="round"/>
  </g>
  <g filter="url(#filter3_i_480_10783)">
    <path d="M20.5645 38.329C20.5645 34.2791 23.8475 30.9961 27.8974 30.9961C31.9472 30.9961 35.2302 34.2791 35.2302 38.329V50.8997H20.5645V38.329Z" fill="#FF9900"/>
  </g>
  <defs>
    <filter id="filter0_f_480_10783" x="39.7251" y="23.0723" width="12.5303" height="20.8364" filterUnits="userSpaceOnUse" color-interpolation-filters="sRGB">
      <feFlood flood-opacity="0" result="BackgroundImageFix"/>
      <feBlend mode="normal" in="SourceGraphic" in2="BackgroundImageFix" result="shape"/>
      <feGaussianBlur stdDeviation="2.61889" result="effect1_foregroundBlur_480_10783"/>
    </filter>
    <filter id="filter1_f_480_10783" x="3.57472" y="37.6602" width="15.9453" height="16.855" filterUnits="userSpaceOnUse" color-interpolation-filters="sRGB">
      <feFlood flood-opacity="0" result="BackgroundImageFix"/>
      <feBlend mode="normal" in="SourceGraphic" in2="BackgroundImageFix" result="shape"/>
      <feGaussianBlur stdDeviation="2.61889" result="effect1_foregroundBlur_480_10783"/>
    </filter>
    <filter id="filter2_f_480_10783" x="3.82735" y="2.84249" width="14.607" height="14.1705" filterUnits="userSpaceOnUse" color-interpolation-filters="sRGB">
      <feFlood flood-opacity="0" result="BackgroundImageFix"/>
      <feBlend mode="normal" in="SourceGraphic" in2="BackgroundImageFix" result="shape"/>
      <feGaussianBlur stdDeviation="2.09511" result="effect1_foregroundBlur_480_10783"/>
    </filter>
    <filter id="filter3_i_480_10783" x="20.5645" y="30.9961" width="14.666" height="21.9989" filterUnits="userSpaceOnUse" color-interpolation-filters="sRGB">
      <feFlood flood-opacity="0" result="BackgroundImageFix"/>
      <feBlend mode="normal" in="SourceGraphic" in2="BackgroundImageFix" result="shape"/>
      <feColorMatrix in="SourceAlpha" type="matrix" values="0 0 0 0 0 0 0 0 0 0 0 0 0 0 0 0 0 0 127 0" result="hardAlpha"/>
      <feOffset dy="2.09511"/>
      <feGaussianBlur stdDeviation="2.09511"/>
      <feComposite in2="hardAlpha" operator="arithmetic" k2="-1" k3="1"/>
      <feColorMatrix type="matrix" values="0 0 0 0 1 0 0 0 0 0.753599 0 0 0 0 0.383998 0 0 0 1 0"/>
      <feBlend mode="normal" in2="shape" result="effect1_innerShadow_480_10783"/>
    </filter>
    <linearGradient id="paint0_linear_480_10783" x1="27.8986" y1="7.54785" x2="27.8986" y2="50.9004" gradientUnits="userSpaceOnUse">
      <stop stop-color="#01AAFA"/>
      <stop offset="1" stop-color="#0065C1"/>
    </linearGradient>
    <linearGradient id="paint1_linear_480_10783" x1="27.8987" y1="6.10059" x2="27.8987" y2="24.8712" gradientUnits="userSpaceOnUse">
      <stop stop-color="#FCB625"/>
      <stop offset="1" stop-color="#FE921A"/>
    </linearGradient>
  </defs>
</svg>