<svg xmlns="http://www.w3.org/2000/svg" width="80" height="80" viewBox="0 0 80 80" fill="none">
  <circle cx="40" cy="40" r="20" fill="white"/>
  <path fill-rule="evenodd" clip-rule="evenodd" d="M35.2368 4.94955C36.4167 3.77113 37.9955 3.07773 39.6616 3.00615C41.3277 2.93457 42.9601 3.49001 44.2368 4.56288L44.6634 4.95288L50.9968 11.2829H59.9501C61.6314 11.2832 63.2506 11.9188 64.4831 13.0623C65.7157 14.2059 66.4707 15.7729 66.5968 17.4495L66.6168 17.9496V26.9029L72.9501 33.2362C74.1294 34.4163 74.8234 35.9958 74.895 37.6627C74.9666 39.3295 74.4106 40.9627 73.3368 42.2395L72.9468 42.6629L66.6134 48.9962V57.9496C66.614 59.6315 65.9787 61.2514 64.8351 62.4847C63.6915 63.718 62.1239 64.4734 60.4468 64.5996L59.9501 64.6162H51.0001L44.6668 70.9495C43.4866 72.1289 41.9072 72.8229 40.2403 72.8945C38.5735 72.9661 36.9403 72.41 35.6634 71.3362L35.2401 70.9495L28.9068 64.6162H19.9501C18.2682 64.6167 16.6482 63.9815 15.4149 62.8379C14.1817 61.6943 13.4262 60.1267 13.3001 58.4495L13.2834 57.9496V48.9962L6.9501 42.6629C5.77074 41.4827 5.07676 39.9033 5.00517 38.2364C4.93358 36.5696 5.4896 34.9364 6.56343 33.6596L6.9501 33.2362L13.2834 26.9029V17.9496C13.2837 16.2682 13.9193 14.6491 15.0629 13.4165C16.2064 12.1839 17.7735 11.429 19.4501 11.3029L19.9501 11.2829H28.9034L35.2368 4.94955ZM50.2134 27.8929L36.0668 42.0396L30.1734 36.1462C29.548 35.5212 28.6998 35.1702 27.8156 35.1705C26.9314 35.1709 26.0835 35.5224 25.4584 36.1479C24.8334 36.7734 24.4824 37.6215 24.4828 38.5057C24.4831 39.39 24.8346 40.2379 25.4601 40.8629L33.4734 48.8762C33.8139 49.2169 34.2182 49.4871 34.6632 49.6715C35.1082 49.8559 35.5851 49.9508 36.0668 49.9508C36.5484 49.9508 37.0254 49.8559 37.4703 49.6715C37.9153 49.4871 38.3196 49.2169 38.6601 48.8762L54.9268 32.6062C55.534 31.9775 55.8699 31.1355 55.8623 30.2615C55.8547 29.3876 55.5042 28.5515 54.8862 27.9335C54.2681 27.3155 53.4321 26.9649 52.5581 26.9573C51.6841 26.9497 50.8421 27.2857 50.2134 27.8929Z" fill="url(#paint0_linear_535_5353)"/>
  <g filter="url(#filter0_f_535_5353)">
    <path d="M19.9494 23.6636C19.4732 21.2826 19.6637 16.6636 24.2351 17.235" stroke="white" stroke-width="2.85714" stroke-linecap="round"/>
  </g>
  <g filter="url(#filter1_f_535_5353)">
    <path d="M59.949 52.2348C60.4252 54.6158 60.2347 59.2348 55.6633 58.6634" stroke="white" stroke-width="2.85714" stroke-linecap="round"/>
  </g>
  <defs>
    <filter id="filter0_f_535_5353" x="12.6285" y="10.044" width="18.7499" height="20.7626" filterUnits="userSpaceOnUse" color-interpolation-filters="sRGB">
      <feFlood flood-opacity="0" result="BackgroundImageFix"/>
      <feBlend mode="normal" in="SourceGraphic" in2="BackgroundImageFix" result="shape"/>
      <feGaussianBlur stdDeviation="2.85714" result="effect1_foregroundBlur_535_5353"/>
    </filter>
    <filter id="filter1_f_535_5353" x="48.5201" y="45.0919" width="18.7499" height="20.7626" filterUnits="userSpaceOnUse" color-interpolation-filters="sRGB">
      <feFlood flood-opacity="0" result="BackgroundImageFix"/>
      <feBlend mode="normal" in="SourceGraphic" in2="BackgroundImageFix" result="shape"/>
      <feGaussianBlur stdDeviation="2.85714" result="effect1_foregroundBlur_535_5353"/>
    </filter>
    <linearGradient id="paint0_linear_535_5353" x1="39.9501" y1="3" x2="39.9501" y2="72.9006" gradientUnits="userSpaceOnUse">
      <stop stop-color="#F24EF5"/>
      <stop offset="1" stop-color="#8800FF"/>
    </linearGradient>
  </defs>
</svg>